<svg width="108" height="15" viewBox="0 0 108 15" fill="none" xmlns="http://www.w3.org/2000/svg">
<path d="M7.97118 0.700024V0.890023H1.98618V6.59002H7.53418V6.78002H1.98618V13.81H8.38918V14H0.40918V0.700024H7.97118Z" fill="black"/>
<path d="M9.4416 0.852024C10.9109 0.75069 12.2093 0.700024 13.3366 0.700024C16.4653 0.700024 18.0296 1.74502 18.0296 3.83502C18.0296 4.72169 17.8143 5.51336 17.3836 6.21002C16.9529 6.90669 16.2119 7.36902 15.1606 7.59702L18.9606 14H17.1936L13.4696 7.71102H11.0186V14H9.4416V0.852024ZM13.3366 0.890023C12.6019 0.890023 11.8293 0.934357 11.0186 1.02302V7.52102H13.8306C15.6166 7.44502 16.5096 6.22902 16.5096 3.87302C16.5096 2.91036 16.2436 2.17569 15.7116 1.66902C15.1796 1.14969 14.3879 0.890023 13.3366 0.890023Z" fill="black"/>
<path d="M19.9027 0.852024C21.3721 0.75069 22.6704 0.700024 23.7977 0.700024C26.9264 0.700024 28.4907 1.74502 28.4907 3.83502C28.4907 4.72169 28.2754 5.51336 27.8447 6.21002C27.4141 6.90669 26.6731 7.36902 25.6217 7.59702L29.4217 14H27.6547L23.9307 7.71102H21.4797V14H19.9027V0.852024ZM23.7977 0.890023C23.0631 0.890023 22.2904 0.934357 21.4797 1.02302V7.52102H24.2917C26.0777 7.44502 26.9707 6.22902 26.9707 3.87302C26.9707 2.91036 26.7047 2.17569 26.1727 1.66902C25.6407 1.14969 24.8491 0.890023 23.7977 0.890023Z" fill="black"/>
<path d="M30.5349 13.848H35.6649V14H30.5349V13.848Z" fill="black"/>
<path d="M43.9588 14.076C41.5901 14.076 39.8358 13.4047 38.6958 12.062C38.2905 11.5807 37.9611 10.941 37.7078 10.143C37.4545 9.34502 37.3278 8.37602 37.3278 7.23602C37.3278 6.09602 37.5115 5.07636 37.8788 4.17702C38.2588 3.26502 38.7718 2.56202 39.4178 2.06802C40.6718 1.14336 42.1855 0.681024 43.9588 0.681024C44.4655 0.681024 44.9595 0.725357 45.4408 0.814024C45.9221 0.890024 46.2831 0.972357 46.5238 1.06102L46.8658 1.19402L46.8088 1.38402C45.9475 1.04202 44.9975 0.871024 43.9588 0.871024C42.6161 0.871024 41.4951 1.30802 40.5958 2.18202C39.9118 2.82802 39.4305 3.77802 39.1518 5.03202C38.9871 5.74136 38.9048 6.60903 38.9048 7.63503C38.9048 8.66103 39.0505 9.61102 39.3418 10.485C39.6331 11.3464 39.9625 11.986 40.3298 12.404C40.7098 12.822 41.1658 13.1577 41.6978 13.411C42.2298 13.6517 42.6541 13.791 42.9708 13.829C43.2875 13.867 43.6675 13.886 44.1108 13.886C44.5668 13.886 45.0798 13.8417 45.6498 13.753C46.2198 13.6644 46.6505 13.582 46.9418 13.506L47.3788 13.373L47.4358 13.563C46.4731 13.905 45.3141 14.076 43.9588 14.076Z" fill="black"/>
<path d="M47.1581 7.67303C47.1581 5.36769 47.7154 3.61969 48.8301 2.42902C49.9574 1.22569 51.4014 0.624023 53.1621 0.624023C54.9228 0.624023 56.3224 1.14336 57.3611 2.18202C58.4124 3.22069 58.9381 4.88002 58.9381 7.16002C58.9381 9.44002 58.3807 11.1627 57.2661 12.328C56.1514 13.4934 54.6631 14.076 52.8011 14.076C51.1924 14.076 49.8751 13.6137 48.8491 12.689C48.3171 12.2077 47.8991 11.5427 47.5951 10.694C47.3038 9.83269 47.1581 8.82569 47.1581 7.67303ZM53.1051 0.814024C51.8258 0.814024 50.7744 1.38402 49.9511 2.52402C49.1404 3.66402 48.7351 5.33602 48.7351 7.54002C48.7351 9.74402 49.1214 11.3527 49.8941 12.366C50.6668 13.3794 51.6928 13.886 52.9721 13.886C54.2641 13.886 55.3154 13.316 56.1261 12.176C56.9494 11.0234 57.3611 9.35769 57.3611 7.17902C57.3611 4.98769 56.9684 3.37902 56.1831 2.35302C55.4104 1.32702 54.3844 0.814024 53.1051 0.814024Z" fill="black"/>
<path d="M60.2293 14H59.9823V0.700024H60.6283L68.5323 12.993V0.700024H68.7793V14H67.3923L60.2293 2.98002V14Z" fill="black"/>
<path d="M70.542 14H70.295V0.700024H70.941L78.845 12.993V0.700024H79.092V14H77.705L70.542 2.98002V14Z" fill="black"/>
<path d="M88.2647 0.700024V0.890023H82.2797V6.59002H87.8277V6.78002H82.2797V13.81H88.6827V14H80.7027V0.700024H88.2647Z" fill="black"/>
<path d="M95.411 14.076C93.0423 14.076 91.288 13.4047 90.148 12.062C89.7426 11.5807 89.4133 10.941 89.16 10.143C88.9066 9.34502 88.78 8.37602 88.78 7.23602C88.78 6.09602 88.9636 5.07636 89.331 4.17702C89.711 3.26502 90.224 2.56202 90.87 2.06802C92.124 1.14336 93.6376 0.681024 95.411 0.681024C95.9176 0.681024 96.4116 0.725357 96.893 0.814024C97.3743 0.890024 97.7353 0.972357 97.976 1.06102L98.318 1.19402L98.261 1.38402C97.3996 1.04202 96.4496 0.871024 95.411 0.871024C94.0683 0.871024 92.9473 1.30802 92.048 2.18202C91.364 2.82802 90.8826 3.77802 90.604 5.03202C90.4393 5.74136 90.357 6.60903 90.357 7.63503C90.357 8.66103 90.5026 9.61102 90.794 10.485C91.0853 11.3464 91.4146 11.986 91.782 12.404C92.162 12.822 92.618 13.1577 93.15 13.411C93.682 13.6517 94.1063 13.791 94.423 13.829C94.7396 13.867 95.1196 13.886 95.563 13.886C96.019 13.886 96.532 13.8417 97.102 13.753C97.672 13.6644 98.1026 13.582 98.394 13.506L98.831 13.373L98.888 13.563C97.9253 13.905 96.7663 14.076 95.411 14.076Z" fill="black"/>
<path d="M104.041 14H102.464V0.890023H99.1765V0.700024H107.347V0.890023H104.041V14Z" fill="black"/>
</svg>
