<svg width="512" height="512" viewBox="0 0 512 512" fill="none" xmlns="http://www.w3.org/2000/svg">
<rect x="6" y="6" width="500" height="500" fill="#F6EEE4"/>
<path d="M198.01 300.644C214.281 300.644 228.353 297.456 240.226 291.079C252.32 284.483 262.324 274.809 270.239 262.056L248.801 248.533C243.305 257.768 236.598 264.694 228.683 269.312C220.767 273.709 211.642 275.908 201.308 275.908C190.974 275.908 182.179 273.709 174.923 269.312C167.667 264.914 162.17 258.538 158.432 250.182C154.694 241.827 152.825 231.713 152.825 219.839C152.825 211.264 153.925 203.569 156.124 196.752C158.322 189.936 161.51 184.219 165.688 179.602C169.866 174.985 174.923 171.467 180.86 169.048C187.016 166.629 193.832 165.42 201.308 165.42C209.883 165.42 217.359 167.289 223.736 171.027C230.112 174.765 235.059 179.932 238.577 186.528C242.315 193.124 244.184 200.93 244.184 209.945C244.184 211.484 243.854 213.463 243.195 215.882C242.535 218.08 241.875 219.73 241.216 220.829L251.77 205.657H142.931V228.085H272.548C272.548 227.645 272.548 226.656 272.548 225.117C272.768 223.358 272.878 221.708 272.878 220.169C272.878 204.118 270.02 190.266 264.303 178.613C258.586 166.959 250.341 158.054 239.567 151.898C229.013 145.521 216.26 142.333 201.308 142.333C190.094 142.333 179.87 144.312 170.635 148.27C161.401 152.008 153.485 157.395 146.889 164.431C140.292 171.247 135.125 179.492 131.387 189.167C127.869 198.841 126.11 209.615 126.11 221.489C126.11 237.1 129.079 250.842 135.015 262.715C141.172 274.589 149.637 283.934 160.411 290.75C171.405 297.346 183.938 300.644 198.01 300.644Z" fill="black"/>
<path d="M314.897 216.161C298.626 216.161 284.554 219.349 272.681 225.726C260.588 232.322 255.557 236.389 247.641 249.142L269.713 261.827C275.21 252.592 276.309 252.111 284.224 247.493C292.14 243.096 301.265 240.897 311.599 240.897C321.933 240.897 330.728 243.096 337.984 247.493C345.24 251.891 350.737 258.267 354.475 266.623C358.213 274.978 360.082 285.092 360.082 296.966C360.082 305.541 358.982 313.237 356.784 320.053C354.585 326.869 351.397 332.586 347.219 337.203C343.041 341.82 337.984 345.339 332.048 347.757C325.891 350.176 319.075 351.385 311.599 351.385C303.024 351.385 295.548 349.516 289.172 345.778C282.795 342.04 277.848 336.873 274.33 330.277C270.592 323.681 268.723 315.875 268.723 306.86C268.723 305.321 269.053 303.342 269.713 300.923C270.372 298.725 271.032 297.076 271.692 295.976L261.137 311.148L369.976 311.148L369.976 288.72L240.359 288.72C240.359 289.16 240.359 290.149 240.359 291.689C240.139 293.448 240.029 295.097 240.029 296.636C240.029 312.687 242.888 326.539 248.604 338.193C254.321 349.846 262.567 358.751 273.341 364.908C283.895 371.284 296.647 374.472 311.599 374.472C322.813 374.472 333.037 372.493 342.272 368.535C351.507 364.798 359.422 359.411 366.019 352.375C372.615 345.558 377.782 337.313 381.52 327.638C385.038 317.964 386.797 307.19 386.797 295.317C386.797 279.705 383.829 265.963 377.892 254.09C371.735 242.216 363.27 232.872 352.496 226.055C341.502 219.459 328.969 216.161 314.897 216.161Z" fill="black"/>
<circle cx="255.5" cy="256.5" r="205" stroke="black"/>
</svg>
